<svg width="100" height="58" viewBox="0 0 100 58" fill="none" xmlns="http://www.w3.org/2000/svg">
<path fill-rule="evenodd" clip-rule="evenodd" d="M31.657 6.27859C30.8024 7.41599 30.3636 9.0855 30.3636 11C30.3636 12.9145 30.8024 14.584 31.657 15.7214C32.4375 16.7601 33.7425 17.6 36.1149 17.6C37.3864 17.6 39.1423 16.8534 41.441 15.2432C43.1108 14.0735 44.8635 12.5991 46.6891 11C44.8635 9.40094 43.1108 7.9265 41.441 6.75679C39.1423 5.14655 37.3864 4.4 36.1149 4.4C33.7425 4.4 32.4375 5.23989 31.657 6.27859ZM50 8.07248C47.9903 6.30236 45.9281 4.54243 43.9306 3.14321C41.5184 1.45345 38.811 0 36.1149 0C32.5396 0 29.8781 1.36011 28.179 3.62141C26.554 5.78401 26 8.51449 26 11C26 13.4855 26.554 16.216 28.179 18.3786C29.8781 20.6399 32.5396 22 36.1149 22C38.811 22 41.5184 20.5466 43.9306 18.8568C45.9281 17.4576 47.9903 15.6976 50 13.9275C52.0097 15.6976 54.0719 17.4576 56.0694 18.8568C58.4816 20.5466 61.189 22 63.8851 22C67.4604 22 70.1219 20.6399 71.821 18.3786C73.446 16.216 74 13.4855 74 11C74 8.5145 73.446 5.78401 71.821 3.62141C70.1219 1.36011 67.4604 0 63.8851 0C61.189 0 58.4816 1.45345 56.0694 3.14321C54.0719 4.54243 52.0097 6.30235 50 8.07248ZM53.3109 11C55.1365 12.5991 56.8892 14.0735 58.559 15.2432C60.8577 16.8534 62.6136 17.6 63.8851 17.6C66.2575 17.6 67.5625 16.7601 68.343 15.7214C69.1976 14.584 69.6364 12.9145 69.6364 11C69.6364 9.0855 69.1976 7.41599 68.343 6.27859C67.5625 5.23989 66.2575 4.4 63.8851 4.4C62.6136 4.4 60.8577 5.14655 58.559 6.75679C56.8892 7.9265 55.1365 9.40095 53.3109 11Z" fill="url(#paint0_linear_723_88)"/>
<path d="M2.93281 32.4688V41H0.88203V32.4688H2.93281ZM12.7051 32.4688V41H10.6543L7.63672 35.6914V41H5.58008V32.4688H7.63672L10.6543 37.7773V32.4688H12.7051ZM17.2625 32.4688V41H15.2059V32.4688H17.2625ZM20.5789 36.0195V37.6016H16.6766V36.0195H20.5789ZM20.9129 32.4688V34.0566H16.6766V32.4688H20.9129ZM25.1539 32.4688V41H23.1031V32.4688H25.1539ZM34.9262 32.4688V41H32.8754L29.8578 35.6914V41H27.8012V32.4688H29.8578L32.8754 37.7773V32.4688H34.9262ZM39.6125 32.4688V41H37.5617V32.4688H39.6125ZM46.2148 32.4688V41H44.1582V32.4688H46.2148ZM48.7812 32.4688V34.0566H41.6504V32.4688H48.7812ZM52.4949 32.4688L54.0652 36.1719L55.6414 32.4688H57.8563L55.1141 37.9355V41H53.0223V37.9355L50.2742 32.4688H52.4949ZM70.9965 32.4688V41H68.9457L65.9281 35.6914V41H63.8715V32.4688H65.9281L68.9457 37.7773V32.4688H70.9965ZM79.3684 39.418V41H74.8215V39.418H79.3684ZM75.5539 32.4688V41H73.4973V32.4688H75.5539ZM78.7824 35.8555V37.3848H74.8215V35.8555H78.7824ZM79.3859 32.4688V34.0566H74.8215V32.4688H79.3859ZM83.3809 40.2266L85.0801 32.4688H86.0938L86.6445 33.1309L84.834 41H83.7148L83.3809 40.2266ZM82.9297 32.4688L84.3652 40.2852L83.9961 41H82.7012L80.8906 32.4688H82.9297ZM87.5762 40.2441L89 32.4688H91.0332L89.2227 41H87.9336L87.5762 40.2441ZM86.8262 32.4688L88.5664 40.2734L88.2148 41H87.0957L85.2441 33.1191L85.8184 32.4688H86.8262ZM97.4363 38.7324C97.4363 38.5996 97.4168 38.4805 97.3777 38.375C97.3387 38.2656 97.2664 38.1641 97.1609 38.0703C97.0555 37.9766 96.9031 37.8828 96.7039 37.7891C96.5086 37.6914 96.2508 37.5898 95.9305 37.4844C95.5555 37.3594 95.1941 37.2188 94.8465 37.0625C94.4988 36.9023 94.1883 36.7168 93.9148 36.5059C93.6414 36.291 93.4246 36.041 93.2645 35.7559C93.1043 35.4668 93.0242 35.1309 93.0242 34.748C93.0242 34.3809 93.1062 34.0508 93.2703 33.7578C93.4344 33.4609 93.6629 33.209 93.9559 33.002C94.2527 32.791 94.6004 32.6309 94.9988 32.5215C95.3973 32.4082 95.8328 32.3516 96.3055 32.3516C96.9305 32.3516 97.4812 32.4609 97.9578 32.6797C98.4383 32.8945 98.8133 33.2012 99.0828 33.5996C99.3562 33.9941 99.493 34.4609 99.493 35H97.448C97.448 34.7852 97.4031 34.5957 97.3133 34.4316C97.2273 34.2676 97.0965 34.1387 96.9207 34.0449C96.7449 33.9512 96.5242 33.9043 96.2586 33.9043C96.0008 33.9043 95.784 33.9434 95.6082 34.0215C95.4324 34.0996 95.2996 34.2051 95.2098 34.3379C95.1199 34.4668 95.075 34.6094 95.075 34.7656C95.075 34.8945 95.1102 35.0117 95.1805 35.1172C95.2547 35.2188 95.3582 35.3145 95.491 35.4043C95.6277 35.4941 95.7918 35.5801 95.9832 35.6621C96.1785 35.7441 96.3973 35.8242 96.6395 35.9023C97.0926 36.0469 97.4949 36.209 97.8465 36.3887C98.202 36.5645 98.5008 36.7656 98.743 36.9922C98.9891 37.2148 99.1746 37.4688 99.2996 37.7539C99.4285 38.0391 99.493 38.3613 99.493 38.7207C99.493 39.1035 99.4187 39.4434 99.2703 39.7402C99.1219 40.0371 98.909 40.2891 98.6316 40.4961C98.3543 40.6992 98.0223 40.8535 97.6355 40.959C97.2488 41.0645 96.8172 41.1172 96.3406 41.1172C95.9031 41.1172 95.4715 41.0625 95.0457 40.9531C94.6238 40.8398 94.241 40.668 93.8973 40.4375C93.5535 40.2031 93.2781 39.9043 93.0711 39.541C92.868 39.1738 92.7664 38.7383 92.7664 38.2344H94.8289C94.8289 38.4844 94.8621 38.6953 94.9285 38.8672C94.9949 39.0391 95.0926 39.1777 95.2215 39.2832C95.3504 39.3848 95.5086 39.459 95.6961 39.5059C95.8836 39.5488 96.0984 39.5703 96.3406 39.5703C96.6023 39.5703 96.8133 39.5332 96.9734 39.459C97.1336 39.3809 97.2508 39.2793 97.325 39.1543C97.3992 39.0254 97.4363 38.8848 97.4363 38.7324Z" fill="url(#paint1_linear_723_88)"/>
<defs>
<linearGradient id="paint0_linear_723_88" x1="25.466" y1="16.3086" x2="75.3899" y2="16.3086" gradientUnits="userSpaceOnUse">
<stop stop-color="#E91E63"/>
<stop offset="1" stop-color="#4054B2"/>
</linearGradient>
<linearGradient id="paint1_linear_723_88" x1="-1.11244" y1="40.3782" x2="102.896" y2="40.3782" gradientUnits="userSpaceOnUse">
<stop stop-color="#E91E63"/>
<stop offset="1" stop-color="#4054B2"/>
</linearGradient>
</defs>
</svg>
